<mxfile host="app.diagrams.net" modified="2024-03-27T17:27:42.181Z" agent="Mozilla/5.0 (Windows NT 10.0; Win64; x64) AppleWebKit/537.36 (KHTML, like Gecko) Chrome/123.0.0.0 Safari/537.36" etag="GNC0ryZv4ZetFfGyhU46" version="24.2.0" type="device">
  <diagram name="Página-1" id="6nR-FHQFrz9Y289XPfWc">
    <mxGraphModel dx="880" dy="1637" grid="1" gridSize="10" guides="1" tooltips="1" connect="1" arrows="1" fold="1" page="1" pageScale="1" pageWidth="827" pageHeight="1169" math="0" shadow="0">
      <root>
        <mxCell id="0" />
        <mxCell id="1" parent="0" />
        <mxCell id="XIDQArkA8v93CXUX8OhA-6" style="edgeStyle=orthogonalEdgeStyle;rounded=0;orthogonalLoop=1;jettySize=auto;html=1;entryX=0;entryY=0.5;entryDx=0;entryDy=0;" parent="1" source="XIDQArkA8v93CXUX8OhA-1" target="XIDQArkA8v93CXUX8OhA-9" edge="1">
          <mxGeometry relative="1" as="geometry">
            <mxPoint x="90" y="-1110" as="targetPoint" />
          </mxGeometry>
        </mxCell>
        <mxCell id="XIDQArkA8v93CXUX8OhA-1" value="Aluno" style="shape=umlActor;verticalLabelPosition=bottom;verticalAlign=top;html=1;outlineConnect=0;" parent="1" vertex="1">
          <mxGeometry x="30" y="-1140" width="30" height="60" as="geometry" />
        </mxCell>
        <mxCell id="zw7MMnSI21umvQDURzNE-1" style="edgeStyle=orthogonalEdgeStyle;rounded=0;orthogonalLoop=1;jettySize=auto;html=1;" parent="1" source="XIDQArkA8v93CXUX8OhA-4" edge="1">
          <mxGeometry relative="1" as="geometry">
            <mxPoint x="670" y="-1020" as="targetPoint" />
          </mxGeometry>
        </mxCell>
        <mxCell id="XIDQArkA8v93CXUX8OhA-4" value="Professor" style="shape=umlActor;verticalLabelPosition=bottom;verticalAlign=top;html=1;outlineConnect=0;" parent="1" vertex="1">
          <mxGeometry x="710" y="-1050" width="30" height="60" as="geometry" />
        </mxCell>
        <mxCell id="XIDQArkA8v93CXUX8OhA-7" style="edgeStyle=orthogonalEdgeStyle;rounded=0;orthogonalLoop=1;jettySize=auto;html=1;" parent="1" source="XIDQArkA8v93CXUX8OhA-5" edge="1">
          <mxGeometry relative="1" as="geometry">
            <mxPoint x="90" y="-810" as="targetPoint" />
          </mxGeometry>
        </mxCell>
        <mxCell id="FgxRmd1UnI4K5KBvAT6r-3" style="edgeStyle=orthogonalEdgeStyle;rounded=0;orthogonalLoop=1;jettySize=auto;html=1;entryX=0.5;entryY=1;entryDx=0;entryDy=0;" edge="1" parent="1" source="XIDQArkA8v93CXUX8OhA-5" target="XIDQArkA8v93CXUX8OhA-17">
          <mxGeometry relative="1" as="geometry">
            <mxPoint x="450" y="-990" as="targetPoint" />
            <Array as="points">
              <mxPoint x="45" y="-910" />
              <mxPoint x="46" y="-910" />
              <mxPoint x="46" y="-1000" />
              <mxPoint x="450" y="-1000" />
              <mxPoint x="450" y="-1060" />
            </Array>
          </mxGeometry>
        </mxCell>
        <mxCell id="XIDQArkA8v93CXUX8OhA-5" value="Coordenador" style="shape=umlActor;verticalLabelPosition=bottom;verticalAlign=top;html=1;outlineConnect=0;" parent="1" vertex="1">
          <mxGeometry x="30" y="-840" width="30" height="60" as="geometry" />
        </mxCell>
        <mxCell id="XIDQArkA8v93CXUX8OhA-12" style="edgeStyle=orthogonalEdgeStyle;rounded=0;orthogonalLoop=1;jettySize=auto;html=1;entryX=0;entryY=0.5;entryDx=0;entryDy=0;" parent="1" source="XIDQArkA8v93CXUX8OhA-9" target="XIDQArkA8v93CXUX8OhA-11" edge="1">
          <mxGeometry relative="1" as="geometry" />
        </mxCell>
        <mxCell id="XIDQArkA8v93CXUX8OhA-9" value="Cadastro do aluno" style="ellipse;whiteSpace=wrap;html=1;" parent="1" vertex="1">
          <mxGeometry x="110" y="-1130" width="90" height="70" as="geometry" />
        </mxCell>
        <mxCell id="XIDQArkA8v93CXUX8OhA-18" value="" style="edgeStyle=orthogonalEdgeStyle;rounded=0;orthogonalLoop=1;jettySize=auto;html=1;" parent="1" source="XIDQArkA8v93CXUX8OhA-11" target="XIDQArkA8v93CXUX8OhA-17" edge="1">
          <mxGeometry relative="1" as="geometry" />
        </mxCell>
        <mxCell id="XIDQArkA8v93CXUX8OhA-11" value="Matrícula no curso do aluno" style="ellipse;whiteSpace=wrap;html=1;" parent="1" vertex="1">
          <mxGeometry x="230" y="-1130" width="90" height="70" as="geometry" />
        </mxCell>
        <mxCell id="XIDQArkA8v93CXUX8OhA-15" style="edgeStyle=orthogonalEdgeStyle;rounded=0;orthogonalLoop=1;jettySize=auto;html=1;" parent="1" source="XIDQArkA8v93CXUX8OhA-13" edge="1">
          <mxGeometry relative="1" as="geometry">
            <mxPoint x="500" y="-805" as="targetPoint" />
          </mxGeometry>
        </mxCell>
        <mxCell id="XIDQArkA8v93CXUX8OhA-13" value="Gerencia os cursos" style="ellipse;whiteSpace=wrap;html=1;" parent="1" vertex="1">
          <mxGeometry x="220" y="-840" width="90" height="70" as="geometry" />
        </mxCell>
        <mxCell id="XIDQArkA8v93CXUX8OhA-23" style="edgeStyle=orthogonalEdgeStyle;rounded=0;orthogonalLoop=1;jettySize=auto;html=1;" parent="1" source="XIDQArkA8v93CXUX8OhA-14" target="XIDQArkA8v93CXUX8OhA-4" edge="1">
          <mxGeometry relative="1" as="geometry" />
        </mxCell>
        <mxCell id="XIDQArkA8v93CXUX8OhA-14" value="Gerencia os professores" style="ellipse;whiteSpace=wrap;html=1;" parent="1" vertex="1">
          <mxGeometry x="500" y="-840" width="94" height="70" as="geometry" />
        </mxCell>
        <mxCell id="XIDQArkA8v93CXUX8OhA-17" value="Aprovação da matrícula" style="ellipse;whiteSpace=wrap;html=1;" parent="1" vertex="1">
          <mxGeometry x="400" y="-1130" width="90" height="70" as="geometry" />
        </mxCell>
        <mxCell id="zw7MMnSI21umvQDURzNE-5" style="edgeStyle=orthogonalEdgeStyle;rounded=0;orthogonalLoop=1;jettySize=auto;html=1;entryX=1;entryY=0.5;entryDx=0;entryDy=0;" parent="1" source="zw7MMnSI21umvQDURzNE-3" target="XIDQArkA8v93CXUX8OhA-17" edge="1">
          <mxGeometry relative="1" as="geometry" />
        </mxCell>
        <mxCell id="zw7MMnSI21umvQDURzNE-3" value="Cadastro do professor" style="ellipse;whiteSpace=wrap;html=1;" parent="1" vertex="1">
          <mxGeometry x="580" y="-1055" width="90" height="70" as="geometry" />
        </mxCell>
        <mxCell id="zw7MMnSI21umvQDURzNE-7" style="edgeStyle=orthogonalEdgeStyle;rounded=0;orthogonalLoop=1;jettySize=auto;html=1;entryX=0;entryY=0.5;entryDx=0;entryDy=0;" parent="1" source="zw7MMnSI21umvQDURzNE-6" target="XIDQArkA8v93CXUX8OhA-13" edge="1">
          <mxGeometry relative="1" as="geometry" />
        </mxCell>
        <mxCell id="FgxRmd1UnI4K5KBvAT6r-1" style="edgeStyle=orthogonalEdgeStyle;rounded=0;orthogonalLoop=1;jettySize=auto;html=1;entryX=0.5;entryY=1;entryDx=0;entryDy=0;" edge="1" parent="1" source="zw7MMnSI21umvQDURzNE-6" target="zw7MMnSI21umvQDURzNE-3">
          <mxGeometry relative="1" as="geometry">
            <mxPoint x="640" y="-900" as="targetPoint" />
            <Array as="points">
              <mxPoint x="135" y="-899" />
              <mxPoint x="161" y="-899" />
              <mxPoint x="161" y="-900" />
              <mxPoint x="625" y="-900" />
            </Array>
          </mxGeometry>
        </mxCell>
        <mxCell id="FgxRmd1UnI4K5KBvAT6r-2" style="edgeStyle=orthogonalEdgeStyle;rounded=0;orthogonalLoop=1;jettySize=auto;html=1;entryX=0.5;entryY=1;entryDx=0;entryDy=0;" edge="1" parent="1" source="zw7MMnSI21umvQDURzNE-6" target="XIDQArkA8v93CXUX8OhA-9">
          <mxGeometry relative="1" as="geometry" />
        </mxCell>
        <mxCell id="zw7MMnSI21umvQDURzNE-6" value="Cadastro do coordenador" style="ellipse;whiteSpace=wrap;html=1;" parent="1" vertex="1">
          <mxGeometry x="90" y="-840" width="90" height="70" as="geometry" />
        </mxCell>
        <mxCell id="FgxRmd1UnI4K5KBvAT6r-4" value="" style="endArrow=classic;html=1;rounded=0;entryX=0.256;entryY=1;entryDx=0;entryDy=0;entryPerimeter=0;" edge="1" parent="1" target="XIDQArkA8v93CXUX8OhA-11">
          <mxGeometry width="50" height="50" relative="1" as="geometry">
            <mxPoint x="60" y="-840" as="sourcePoint" />
            <mxPoint x="110" y="-890" as="targetPoint" />
          </mxGeometry>
        </mxCell>
      </root>
    </mxGraphModel>
  </diagram>
</mxfile>
